<?xml version="1.0" encoding="utf-8"?>
<!-- Generator: Adobe Illustrator 15.0.0, SVG Export Plug-In . SVG Version: 6.00 Build 0)  -->
<!DOCTYPE svg PUBLIC "-//W3C//DTD SVG 1.1//EN" "http://www.w3.org/Graphics/SVG/1.1/DTD/svg11.dtd">
<svg version="1.1" id="Layer_1" xmlns="http://www.w3.org/2000/svg" xmlns:xlink="http://www.w3.org/1999/xlink" x="0px" y="0px"
	 width="595.279px" height="841.89px" viewBox="0 0 595.279 841.89" enable-background="new 0 0 595.279 841.89"
	 xml:space="preserve">
<g>
	<g>
		<path fill="#006998" d="M310.779,383.904v-0.891h-4.801v0.891h0.346c0.966,0,1.49,0.344,1.49,1.05v5.732h0.193l-6.192-7.674
			h-5.612v0.891h0.094c0.734,0,1.477,0.573,1.477,1.454v8.425c0,1.125-0.632,1.325-1.309,1.325h-0.005h-0.322v0.889l4.836,0.016
			l-0.05-0.905h-0.14c-1.218,0-1.701-0.176-1.701-1.227v-8.339h-0.189l8.405,10.455h1.836v-11.101c0-0.463,0.414-0.993,1.398-0.993
			L310.779,383.904L310.779,383.904z M283.457,395.997h11.64v-5.163h-0.962v0.555c0,2.952-2.037,3.719-4.589,3.719h-0.457v-11.205
			h2.138v-0.891h-7.769v0.891h1.938v11.205h-1.938L283.457,395.997L283.457,395.997z"/>
	</g>
</g>
</svg>
